# xmcd
#
# Track frame offsets:
#	150
#	16047
#	32697
#	48590
#
# Disc length: 866 seconds
#
# Revision: 0
# Processed by: cddbd v1.5.2PL0 Copyright (c) Steve Scherf et al.
# Submitted via: audiograbber 1.82.01
#
DISCID=25036004
DTITLE=Hopley Roger John - Kiss and tell
DYEAR=1900
DGENRE=
TTITLE0=Kiss and tell
TTITLE1=Dreaming on
TTITLE2=The price of love
TTITLE3=Dreaming on instrumental
EXTD=
EXTT0=
EXTT1=
EXTT2=
EXTT3=
PLAYORDER=
